<?xml version="1.0" encoding="UTF-8"?>
<!DOCTYPE svg PUBLIC "-//W3C//DTD SVG 1.1//EN" "http://www.w3.org/Graphics/SVG/1.1/DTD/svg11.dtd">
<!-- Creator: CorelDRAW -->
<svg xmlns="http://www.w3.org/2000/svg" xml:space="preserve" width="30px" height="32px" version="1.1" style="shape-rendering:geometricPrecision; text-rendering:geometricPrecision; image-rendering:optimizeQuality; fill-rule:evenodd; clip-rule:evenodd"
viewBox="0 0 1.5 1.61"
 xmlns:xlink="http://www.w3.org/1999/xlink"
 xmlns:xodm="http://www.corel.com/coreldraw/odm/2003">
 <defs>
  <style type="text/css">
   <![CDATA[
    .fil0 {fill:#606062;fill-rule:nonzero}
   ]]>
  </style>
 </defs>
 <g id="Layer_x0020_1">
  <metadata id="CorelCorpID_0Corel-Layer"/>
  <path class="fil0" d="M1.27 0.12l-0.18 0 0 0.11c0,0.03 -0.01,0.06 -0.03,0.08 -0.02,0.02 -0.05,0.04 -0.08,0.04 -0.06,0 -0.12,-0.06 -0.12,-0.12l0 -0.11 -0.23 0 0 0.11c0,0.03 -0.01,0.06 -0.03,0.08 -0.02,0.02 -0.05,0.04 -0.08,0.04 -0.07,0 -0.12,-0.06 -0.12,-0.12l0 -0.11 -0.17 0c-0.13,0 -0.23,0.1 -0.23,0.23l0 1.03c0,0.13 0.1,0.23 0.23,0.23l1.04 0c0.12,0 0.23,-0.1 0.23,-0.23l0 -1.03c0,-0.13 -0.11,-0.23 -0.23,-0.23zm-0.2 0.73l-0.13 0.1c-0.02,0.01 -0.02,0.03 -0.02,0.05l0.05 0.15c0.02,0.04 -0.03,0.08 -0.07,0.05l-0.13 -0.09c-0.01,-0.01 -0.03,-0.01 -0.05,0l-0.13 0.09c-0.03,0.03 -0.08,-0.01 -0.07,-0.05l0.05 -0.15c0.01,-0.02 0,-0.04 -0.01,-0.05l-0.13 -0.1c-0.04,-0.02 -0.02,-0.08 0.02,-0.08l0.16 0c0.02,0 0.04,-0.01 0.05,-0.03l0.05 -0.15c0.01,-0.04 0.07,-0.04 0.08,0l0.05 0.15c0.01,0.02 0.02,0.03 0.04,0.03l0.16 0c0.04,0 0.06,0.06 0.03,0.08zm-0.61 -0.62l0 -0.17c0,-0.03 0.02,-0.06 0.06,-0.06l0 0c0.03,0 0.05,0.03 0.05,0.06l0 0.17c0.01,0.03 -0.02,0.06 -0.05,0.06l0 0c-0.03,0 -0.06,-0.03 -0.06,-0.06zm0.46 0l0 -0.17c0,-0.03 0.03,-0.06 0.06,-0.06l0 0c0.03,0 0.06,0.03 0.06,0.06l0 0.17c0,0.03 -0.03,0.06 -0.06,0.06l0 0c-0.03,0 -0.06,-0.03 -0.06,-0.06z"/>
 </g>
</svg>
