<?xml version="1.0" encoding="UTF-8"?>
<!DOCTYPE svg PUBLIC "-//W3C//DTD SVG 1.1//EN" "http://www.w3.org/Graphics/SVG/1.1/DTD/svg11.dtd">
<!-- Creator: CorelDRAW -->
<svg xmlns="http://www.w3.org/2000/svg" xml:space="preserve" width="30px" height="30px" version="1.1" style="shape-rendering:geometricPrecision; text-rendering:geometricPrecision; image-rendering:optimizeQuality; fill-rule:evenodd; clip-rule:evenodd"
viewBox="0 0 0.78 0.78"
 xmlns:xlink="http://www.w3.org/1999/xlink"
 xmlns:xodm="http://www.corel.com/coreldraw/odm/2003">
 <defs>
  <style type="text/css">
   <![CDATA[
    .fil0 {fill:#606062;fill-rule:nonzero}
   ]]>
  </style>
 </defs>
 <g id="Layer_x0020_1">
  <metadata id="CorelCorpID_0Corel-Layer"/>
  <g id="_2193285663696">
   <polygon class="fil0" points="0.28,0.33 0.38,0.27 0.28,0.21 "/>
   <path class="fil0" d="M0.48 0.37l0.19 -0.09 0 -0.17 -0.67 0 0 0.31 0.45 0c0,-0.02 0.01,-0.04 0.03,-0.05zm-0.07 -0.09l-0.14 0.08c0,0 0,0 0,0 -0.01,0 -0.01,0 -0.01,0 -0.01,0 -0.01,0 -0.01,-0.01l0 -0.17c0,0 0,-0.01 0.01,-0.01 0,0 0.01,0 0.01,0l0.14 0.08c0.01,0.01 0.01,0.01 0.01,0.02 0,0 0,0.01 -0.01,0.01l0 0z"/>
   <path class="fil0" d="M0.77 0.28c-0.01,0 -0.02,0 -0.03,0l-0.25 0.11c-0.01,0.01 -0.01,0.02 -0.01,0.03l0 0.21c-0.02,-0.01 -0.04,-0.01 -0.06,-0.01 -0.06,0 -0.11,0.03 -0.11,0.08 0,0.05 0.05,0.08 0.11,0.08 0.06,0 0.11,-0.03 0.11,-0.08l0 -0.26 0.2 -0.09 0 0.17c-0.02,-0.01 -0.04,-0.02 -0.06,-0.02 -0.06,0 -0.11,0.04 -0.11,0.09 0,0.05 0.05,0.08 0.11,0.08 0.07,0 0.11,-0.03 0.11,-0.08l0 -0.28c0,-0.01 0,-0.02 -0.01,-0.03l0 0z"/>
   <path class="fil0" d="M0.11 0l-0.08 0c-0.02,0 -0.03,0.01 -0.03,0.03l0 0.05 0.11 0 0 -0.08z"/>
   <polygon class="fil0" points="0.28,0 0.39,0 0.39,0.08 0.28,0.08 "/>
   <polygon class="fil0" points="0.14,0 0.25,0 0.25,0.08 0.14,0.08 "/>
   <path class="fil0" d="M0 0.5c0,0.02 0.01,0.03 0.03,0.03l0.08 0 0 -0.08 -0.11 0 0 0.05z"/>
   <polygon class="fil0" points="0.28,0.45 0.39,0.45 0.39,0.53 0.28,0.53 "/>
   <polygon class="fil0" points="0.14,0.45 0.25,0.45 0.25,0.53 0.14,0.53 "/>
   <path class="fil0" d="M0.67 0.03c0,-0.02 -0.01,-0.03 -0.03,-0.03l-0.08 0 0 0.08 0.11 0 0 -0.05z"/>
   <polygon class="fil0" points="0.42,0 0.53,0 0.53,0.08 0.42,0.08 "/>
   <polygon class="fil0" points="0.42,0.45 0.45,0.45 0.45,0.53 0.42,0.53 "/>
  </g>
 </g>
</svg>
