<?xml version="1.0" encoding="UTF-8"?>
<!DOCTYPE svg PUBLIC "-//W3C//DTD SVG 1.1//EN" "http://www.w3.org/Graphics/SVG/1.1/DTD/svg11.dtd">
<!-- Creator: CorelDRAW -->
<svg xmlns="http://www.w3.org/2000/svg" xml:space="preserve" width="30px" height="31px" version="1.1" style="shape-rendering:geometricPrecision; text-rendering:geometricPrecision; image-rendering:optimizeQuality; fill-rule:evenodd; clip-rule:evenodd"
viewBox="0 0 1.18 1.23"
 xmlns:xlink="http://www.w3.org/1999/xlink"
 xmlns:xodm="http://www.corel.com/coreldraw/odm/2003">
 <defs>
  <style type="text/css">
   <![CDATA[
    .fil0 {fill:#606062;fill-rule:nonzero}
   ]]>
  </style>
 </defs>
 <g id="Layer_x0020_1">
  <metadata id="CorelCorpID_0Corel-Layer"/>
  <path class="fil0" d="M0.23 0.77l0 0.39c0,0.04 -0.03,0.07 -0.07,0.07l-0.09 0c-0.04,0 -0.07,-0.03 -0.07,-0.07l0 -0.39c0,-0.04 0.03,-0.07 0.07,-0.07l0.09 0c0.04,0 0.07,0.03 0.07,0.07 0,0 0,0 0,0l0 0zm0.56 -0.55l0 0 0 0 0 0zm-0.14 -0.22l0.14 0.18 0.14 -0.18 -0.28 0zm-0.03 0.04l-0.03 0.18 0 0 0.17 0 -0.14 -0.18zm0.15 0.23l-0.16 0 0.16 0.38 0 -0.38zm0.26 -0.05c0,0 0,0 0,0 0,0 0,0 0,0l0.14 0c0,-0.01 0,-0.02 -0.01,-0.02l-0.16 -0.18 0 0 0.03 0.2zm-0.47 0.05l-0.15 0c0,0 0,0.01 0.01,0.01l0.32 0.43 0 0c0,0 0,0.01 0.01,0.01l-0.19 -0.45zm0.46 0l-0.19 0.45c0.01,0 0.01,-0.01 0.01,-0.01l0.33 -0.43c0,0 0,-0.01 0.01,-0.02l-0.16 0.01zm-0.06 -0.23l-0.14 0.18 0.17 0 0 0 -0.03 -0.18zm-0.15 0.23l0 0.38 0.16 -0.38 -0.16 0zm-0.26 -0.05c0,0 0,0 0,0 0,0 0,0 0,0l0.03 -0.2 0 0 -0.16 0.18c-0.01,0 -0.01,0.01 -0.01,0.02l0.14 0zm0.61 0.5c-0.02,-0.04 -0.05,-0.06 -0.09,-0.06 -0.03,0 -0.06,0.02 -0.07,0.05l-0.08 0.14 -0.03 0.03c-0.01,0.04 -0.03,0.08 -0.07,0.1l0 0 -0.25 0 0 -0.04 0.23 0c0.03,-0.02 0.04,-0.05 0.05,-0.09l0 -0.01c-0.02,-0.02 -0.05,-0.03 -0.08,-0.03l-0.08 0c0,0 0,0 0,0 -0.01,0 -0.02,-0.01 -0.02,-0.01 -0.04,-0.04 -0.08,-0.06 -0.13,-0.06l-0.05 0c-0.01,0 -0.02,0 -0.03,0l-0.18 0.03c0,0 0,0 0,0l0 0.39 0.45 0c0,0 0,0 0,0 0.04,0 0.07,-0.01 0.09,-0.02l0.18 -0.11c0.03,-0.02 0.06,-0.04 0.07,-0.07l0.08 -0.18c0.01,-0.01 0.01,-0.02 0.01,-0.03 0,-0.01 0,-0.02 0,-0.03z"/>
 </g>
</svg>
