<?xml version="1.0" encoding="UTF-8"?>
<!DOCTYPE svg PUBLIC "-//W3C//DTD SVG 1.1//EN" "http://www.w3.org/Graphics/SVG/1.1/DTD/svg11.dtd">
<!-- Creator: CorelDRAW -->
<svg xmlns="http://www.w3.org/2000/svg" xml:space="preserve" width="30px" height="35px" version="1.1" style="shape-rendering:geometricPrecision; text-rendering:geometricPrecision; image-rendering:optimizeQuality; fill-rule:evenodd; clip-rule:evenodd"
viewBox="0 0 0.89 1.03"
 xmlns:xlink="http://www.w3.org/1999/xlink"
 xmlns:xodm="http://www.corel.com/coreldraw/odm/2003">
 <defs>
  <style type="text/css">
   <![CDATA[
    .fil0 {fill:#606062;fill-rule:nonzero}
   ]]>
  </style>
 </defs>
 <g id="Layer_x0020_1">
  <metadata id="CorelCorpID_0Corel-Layer"/>
  <path class="fil0" d="M0.57 1.03c-0.01,0 -0.01,0 -0.02,0 -0.02,0 -0.04,0 -0.06,0 -0.02,0.01 -0.08,0 -0.1,0 -0.03,0 -0.03,-0.01 -0.03,-0.02 0,-0.01 0,-0.02 0.01,-0.02 0.02,0 0.04,0 0.06,0l0 0 0.03 0.01c0,0 0.02,0.01 0.03,0.02l0 0c0.01,0 0.02,-0.01 0.03,-0.03 0,0 0,0.01 0,0.01 0.01,0 0.02,0 0.03,0 0,0.01 0.01,0.02 0.02,0.03l0 0zm-0.45 -0.77c0.02,-0.02 0.06,-0.01 0.07,-0.01 0.02,0 0.08,0 0.1,0 0.02,-0.01 0.06,0 0.1,0 0.04,0 0.05,0 0.09,0 0.01,0 0.01,0 0.02,-0.01 -0.02,-0.01 -0.04,-0.04 -0.05,-0.04 0,-0.01 0,-0.01 -0.01,-0.01 -0.02,0 -0.05,0 -0.08,0 -0.03,0 -0.06,0 -0.09,0 -0.02,0 -0.07,0 -0.12,0 -0.03,0 -0.07,0.01 -0.09,0.04l0.01 0c0.03,0 0.04,0.01 0.05,0.03zm-0.04 0.42c0.05,0.01 0.08,0.01 0.13,0.01 0.05,0 0.08,0 0.11,0 0,-0.01 0,-0.01 0,-0.02 0,-0.01 0,-0.01 0.01,-0.02 -0.02,-0.01 -0.02,-0.01 -0.02,-0.02l-0.01 0c-0.01,0 -0.07,0 -0.09,0 -0.03,0 -0.14,0.01 -0.14,-0.04 0,-0.06 0.05,-0.07 0.1,-0.06 -0.01,-0.01 -0.01,-0.02 -0.01,-0.03 0,-0.01 0,-0.02 0.01,-0.03 -0.04,0 -0.07,0 -0.09,0.01 -0.06,0 -0.08,0.04 -0.08,0.11 0,0.06 0.03,0.08 0.08,0.09l0 0zm0.35 -0.21c0,0 0,0 0,0 -0.01,0 -0.01,0 -0.02,0 -0.03,0 -0.1,0.01 -0.12,0 0,0 -0.01,0 -0.03,0 0.01,0.01 0.01,0.01 0.01,0.02 0.01,0.01 0.01,0.03 0,0.04l0.13 0c0,0 0,0 0,0 0,-0.02 0,-0.03 0,-0.03 0.01,-0.01 0.02,-0.02 0.03,-0.03zm0.02 -0.14c-0.04,0 -0.06,0.01 -0.1,0.01 -0.04,-0.01 -0.1,0 -0.15,0 -0.03,0 -0.06,-0.01 -0.08,-0.03 -0.01,0.02 -0.02,0.03 -0.03,0.03 0,0 -0.01,0 -0.02,0 0,0 0,0 0,0 0.03,0.04 0.08,0.06 0.12,0.06 0.05,-0.01 0.15,-0.01 0.25,-0.01 0.09,0 0.15,-0.01 0.15,0.04l0 0.01 0.03 0c0.01,0 0.01,0.01 0.02,0.03l0 0c0,-0.01 0.01,-0.03 0.01,-0.04 0,-0.1 -0.09,-0.09 -0.1,-0.09 -0.02,-0.01 -0.06,0 -0.1,-0.01l0 0zm-0.36 0c0.02,-0.01 0.04,-0.03 0.03,-0.06 -0.02,-0.03 -0.02,-0.04 -0.05,-0.04 -0.03,0 -0.05,0.01 -0.05,0.05 0,0.05 0.05,0.06 0.07,0.05l0 0zm0.13 0.12c-0.03,0 -0.05,0.01 -0.05,0.05 -0.01,0.04 0.05,0.06 0.07,0.05 0.01,-0.01 0.04,-0.03 0.02,-0.06 -0.01,-0.03 -0.01,-0.04 -0.04,-0.04l0 0zm0.36 0.21c0.02,0.01 0.03,0 0.03,-0.01 0.01,-0.01 0,-0.03 -0.01,-0.04 -0.01,0 -0.03,0 -0.03,0.02 -0.01,0.02 0,0.03 0.01,0.03zm-0.08 0.05c0.02,0 0.03,-0.01 0.03,-0.02 0,-0.02 -0.01,-0.03 -0.02,-0.03 -0.02,0 -0.03,0.01 -0.03,0.03 0,0.01 0,0.02 0.02,0.02zm0.09 0.09c-0.02,0 -0.03,0.01 -0.03,0.03 0,0.02 0.01,0.03 0.03,0.03 0.01,0 0.02,-0.02 0.02,-0.03 0,-0.01 0,-0.03 -0.02,-0.03zm0.09 -0.09c0.01,0 0.02,-0.02 0.02,-0.03 0,-0.01 0,-0.02 -0.02,-0.02 -0.02,0 -0.03,0.01 -0.03,0.03 0,0.01 0.01,0.02 0.03,0.02zm0 0.05c-0.02,0 -0.03,0.01 -0.03,0.03 0,0.01 0.01,0.02 0.02,0.02 0.02,0 0.03,-0.01 0.03,-0.02 0,-0.01 0,-0.03 -0.02,-0.03zm-0.17 0c-0.02,0 -0.03,0.02 -0.03,0.03 0,0.01 0.01,0.02 0.03,0.02 0.01,0 0.02,-0.01 0.02,-0.02 0,-0.02 -0.01,-0.03 -0.02,-0.03zm-0.05 -0.57c-0.02,-0.01 -0.04,-0.06 -0.04,-0.1 0,-0.04 0.02,-0.05 0.04,-0.07 0.01,-0.02 0.04,-0.02 0.06,-0.02 0.01,0 0.03,0 0.06,0.02 0.03,0.02 0.05,0.05 0.05,0.08 0,0.03 -0.04,0.08 -0.04,0.1 -0.01,0.01 -0.04,0.04 -0.06,0.06 0,0 -0.01,0 -0.01,0 0,0 -0.05,-0.05 -0.06,-0.07zm0 -0.09c0,0.03 0.02,0.04 0.02,0.05 0.01,0.01 0.04,0.04 0.04,0.05 0.01,-0.01 0.04,-0.04 0.05,-0.05 0,-0.02 0.01,-0.03 0.01,-0.05 0,-0.01 0,-0.03 -0.01,-0.04 -0.01,0 -0.02,-0.01 -0.03,-0.01 -0.01,-0.01 -0.03,-0.01 -0.04,0 -0.02,0.01 -0.04,0.03 -0.04,0.05l0 0zm0.06 0.04c0.02,0 0.03,-0.01 0.03,-0.03 0,-0.02 -0.01,-0.03 -0.03,-0.03 -0.02,0 -0.03,0.01 -0.03,0.03 0,0.02 0.02,0.03 0.03,0.03zm-0.35 0.63c-0.02,0 -0.06,0 -0.06,0.03 0,0.01 0.01,0.02 0.02,0.02l0.01 0c0.03,0 0.05,0 0.07,0 0.02,0 0.02,-0.02 0.02,-0.03 0,-0.01 -0.01,-0.02 -0.04,-0.02 -0.01,0 -0.01,0 -0.02,0l0 0zm0.09 0.2c0,0 -0.01,0 -0.01,0 -0.02,0.01 -0.05,0 -0.06,0 -0.02,0.01 -0.02,0.02 -0.02,0.03 0,0.01 0.01,0.02 0.04,0.02 0,0 0.02,0 0.02,0 0.02,0 0.06,0 0.06,-0.02 0,-0.02 -0.01,-0.03 -0.03,-0.03zm-0.05 -0.04c0.01,0 0.03,-0.01 0.03,-0.03 0,-0.01 -0.01,-0.02 -0.04,-0.02 -0.04,0 -0.09,0 -0.11,0 -0.02,0 -0.05,-0.01 -0.06,0 -0.01,0.01 -0.02,0.01 -0.02,0.02 0,0.02 0,0.03 0.02,0.03 0.03,0 0.05,0 0.07,0 0.02,-0.01 0.05,0 0.07,0 0.02,0 0.03,-0.01 0.04,0l0 0zm0.68 -0.21l0 0.03c0,0.01 -0.02,0.02 -0.03,0.02 -0.01,0.02 -0.01,0.03 -0.01,0.04 0.01,0.01 0.02,0.03 0.02,0.03 0,0.01 -0.01,0.02 -0.01,0.03 0,0.01 -0.01,0.03 -0.02,0.03 0,0.01 -0.02,0 -0.04,0 -0.01,0.01 -0.01,0.02 -0.02,0.03 0,0.01 0.01,0.03 0,0.04 0,0 -0.01,0.01 -0.02,0.02 -0.01,0 -0.02,0.01 -0.03,0.01 -0.02,0 -0.03,-0.01 -0.04,-0.02 0,0 0,0 0,0 -0.02,0 -0.02,0 -0.03,0.01 -0.01,0.01 -0.01,0.03 -0.02,0.03 0,0 -0.02,0.01 -0.03,0.01 -0.01,0 -0.02,-0.01 -0.03,-0.01 -0.01,0 -0.02,-0.01 -0.02,-0.03 -0.01,0 -0.02,0 -0.03,0 -0.01,0 -0.01,0 -0.01,0 -0.01,0.01 -0.02,0.02 -0.03,0.02 -0.01,0 -0.02,-0.01 -0.03,-0.01 0,-0.01 -0.02,-0.02 -0.03,-0.02 -0.01,-0.01 0,-0.02 0,-0.04 -0.01,-0.01 -0.02,-0.02 -0.03,-0.03 -0.01,0.01 -0.04,0.02 -0.04,0.01 -0.01,0 -0.01,-0.02 -0.02,-0.02 0,-0.01 -0.01,-0.03 -0.02,-0.03 0,-0.01 0.01,-0.03 0.03,-0.04 -0.01,-0.01 -0.01,-0.02 -0.02,-0.04 -0.01,0 -0.03,0 -0.03,-0.01 0,-0.01 0,-0.02 0,-0.03l0 -0.03c0,-0.01 0.01,-0.02 0.02,-0.02 0,-0.01 0.01,-0.02 0.01,-0.03 0,0 0,-0.01 0,-0.02 -0.01,-0.01 -0.02,-0.02 -0.02,-0.02 0,-0.01 0.01,-0.03 0.01,-0.03 0.01,-0.01 0.02,-0.03 0.02,-0.03 0.01,-0.01 0.02,-0.01 0.04,0 0,-0.01 0.01,-0.02 0.02,-0.03 0,0 0.01,-0.01 0.01,-0.01 0,-0.01 -0.01,-0.03 0,-0.03 0,-0.01 0.01,-0.01 0.02,-0.02 0.01,0 0.03,-0.01 0.03,-0.01 0.01,-0.01 0.03,0 0.04,0.02 0.01,-0.01 0.03,-0.01 0.04,-0.02 0,-0.01 0.01,-0.03 0.01,-0.03 0.01,0 0.03,0 0.03,0l0.04 0c0.01,0 0.01,0.01 0.02,0.03 0.01,0 0.02,0 0.03,0.01 0,0 0.01,0 0.01,0 0.01,-0.01 0.02,-0.02 0.03,-0.02 0,0 0.02,0.01 0.03,0.01 0,0.01 0.02,0.02 0.03,0.02 0,0.01 0,0.02 0,0.04 0.01,0 0.02,0.01 0.03,0.03 0.01,-0.01 0.03,-0.02 0.03,-0.01 0.01,0.01 0.01,0.02 0.02,0.02 0,0.01 0.01,0.03 0.02,0.03 0,0.01 -0.01,0.03 -0.03,0.04 0.01,0.01 0.01,0.02 0.01,0.04 0.02,0 0.04,0 0.04,0.01 0,0.01 0,0.02 0,0.03l0 0zm-0.16 -0.05c-0.01,-0.03 -0.03,-0.05 -0.05,-0.07 -0.04,-0.02 -0.07,-0.03 -0.09,-0.03 -0.04,0 -0.07,0.02 -0.1,0.04 -0.03,0.02 -0.04,0.04 -0.04,0.05 -0.01,0.01 -0.02,0.04 -0.02,0.07 0,0.02 0.02,0.06 0.02,0.07 0,0.01 0.03,0.06 0.08,0.08 0.04,0.01 0.08,0 0.1,0 0.02,0 0.06,-0.01 0.1,-0.07 0.03,-0.05 0.02,-0.11 0,-0.14l0 0zm-0.14 0.02c-0.03,0 -0.04,0.02 -0.04,0.04 0,0.03 0.01,0.05 0.04,0.05 0.03,0 0.04,-0.02 0.04,-0.05 0,-0.02 -0.02,-0.04 -0.04,-0.04z"/>
 </g>
</svg>
