<?xml version="1.0" encoding="UTF-8"?>
<!DOCTYPE svg PUBLIC "-//W3C//DTD SVG 1.1//EN" "http://www.w3.org/Graphics/SVG/1.1/DTD/svg11.dtd">
<!-- Creator: CorelDRAW -->
<svg xmlns="http://www.w3.org/2000/svg" xml:space="preserve" width="30px" height="31px" version="1.1" style="shape-rendering:geometricPrecision; text-rendering:geometricPrecision; image-rendering:optimizeQuality; fill-rule:evenodd; clip-rule:evenodd"
viewBox="0 0 1.98 2.07"
 xmlns:xlink="http://www.w3.org/1999/xlink"
 xmlns:xodm="http://www.corel.com/coreldraw/odm/2003">
 <defs>
  <style type="text/css">
   <![CDATA[
    .fil0 {fill:#606062;fill-rule:nonzero}
   ]]>
  </style>
 </defs>
 <g id="Layer_x0020_1">
  <metadata id="CorelCorpID_0Corel-Layer"/>
  <path class="fil0" d="M1.95 1.04c0.02,0.01 0.03,0.03 0.03,0.05 0,0.01 0,0.01 0,0.02l-0.06 0.32c0,0.03 -0.03,0.05 -0.06,0.06 0,0 0,0 -0.01,0 0,0 0,0 0,0 0,0 0,0 0,0 -0.02,0 -0.04,-0.01 -0.06,-0.02l-0.06 -0.06 -0.4 0.4c-0.02,0.02 -0.05,0.03 -0.08,0.03 -0.02,0 -0.05,-0.01 -0.07,-0.03l-0.2 -0.2 -0.43 0.43c-0.02,0.02 -0.05,0.03 -0.08,0.03 -0.05,0 -0.1,-0.05 -0.1,-0.1 0,-0.03 0.01,-0.06 0.03,-0.08l0.51 -0.5c0.02,-0.02 0.04,-0.03 0.07,-0.03 0.02,0 0.05,0.01 0.07,0.03l0.2 0.21 0.34 -0.34 -0.06 -0.06c-0.02,-0.01 -0.03,-0.03 -0.03,-0.05 0,-0.01 0,-0.01 0,-0.01 0,-0.03 0.03,-0.06 0.07,-0.07l0.32 -0.05c0,0 0.01,0 0.01,0 0,0 0,0 0,0 0,0 0,0 0,0 0.02,0 0.04,0 0.05,0.02l0 0zm-1.54 0.6l0.07 -0.08 0.08 -0.07c0.01,-0.02 0.02,-0.04 0.02,-0.07 0,-0.02 0,-0.04 -0.02,-0.05 -0.01,-0.02 -0.04,-0.04 -0.06,-0.04 -0.03,0 -0.05,0.01 -0.07,0.03l-0.07 0.07c-0.09,-0.11 -0.15,-0.24 -0.16,-0.38l0.11 0c0.05,0 0.09,-0.04 0.09,-0.09 0,-0.05 -0.04,-0.09 -0.09,-0.09l-0.11 0c0.01,-0.14 0.07,-0.28 0.16,-0.39l0.07 0.08c0.02,0.02 0.04,0.02 0.06,0.02 0.03,0 0.06,-0.01 0.07,-0.03 0.02,-0.01 0.02,-0.03 0.02,-0.05 0,-0.03 -0.01,-0.05 -0.03,-0.07l-0.07 -0.07c0.11,-0.09 0.25,-0.15 0.39,-0.16l0 0.1c0,0.05 0.04,0.09 0.09,0.09 0.05,0 0.09,-0.04 0.09,-0.09l0 -0.1 0.03 0c0.16,0.03 0.3,0.1 0.42,0.22l0 0c0.1,0.1 0.17,0.23 0.21,0.36l0 0.01c0.01,0.04 0.05,0.07 0.09,0.07 0.01,0 0.01,0 0.02,0 0.04,-0.01 0.08,-0.05 0.08,-0.09 0,-0.01 0,-0.02 -0.01,-0.03 -0.1,-0.43 -0.48,-0.74 -0.93,-0.74 -0.53,0 -0.96,0.43 -0.96,0.96 0,0.25 0.1,0.5 0.28,0.68 0.02,0.01 0.04,0.02 0.06,0.02 0.03,0 0.05,-0.01 0.07,-0.02l0 0zm0.99 -1.12c-0.01,-0.02 -0.04,-0.03 -0.06,-0.03 -0.02,0 -0.04,0.01 -0.05,0.02l-0.3 0.24c-0.01,0 -0.02,0 -0.03,0 -0.12,0 -0.21,0.09 -0.21,0.21 0,0.12 0.09,0.21 0.21,0.21 0.12,0 0.21,-0.09 0.21,-0.21 0,0 0,0 0,0 0,-0.01 0,-0.02 0,-0.03l0.24 -0.3c0.01,-0.01 0.02,-0.03 0.02,-0.05 0,-0.02 -0.01,-0.04 -0.03,-0.06l0 0z"/>
 </g>
</svg>
