<?xml version="1.0" encoding="UTF-8"?>
<!DOCTYPE svg PUBLIC "-//W3C//DTD SVG 1.1//EN" "http://www.w3.org/Graphics/SVG/1.1/DTD/svg11.dtd">
<!-- Creator: CorelDRAW -->
<svg xmlns="http://www.w3.org/2000/svg" xml:space="preserve" width="30px" height="36px" version="1.1" style="shape-rendering:geometricPrecision; text-rendering:geometricPrecision; image-rendering:optimizeQuality; fill-rule:evenodd; clip-rule:evenodd"
viewBox="0 0 1.22 1.45"
 xmlns:xlink="http://www.w3.org/1999/xlink"
 xmlns:xodm="http://www.corel.com/coreldraw/odm/2003">
 <defs>
  <style type="text/css">
   <![CDATA[
    .fil0 {fill:#606062}
   ]]>
  </style>
 </defs>
 <g id="Layer_x0020_1">
  <metadata id="CorelCorpID_0Corel-Layer"/>
  <path class="fil0" d="M0.62 0.82c0.01,-0.01 0.01,0 0,0zm-0.02 0c-0.01,0 -0.01,-0.01 0,0zm0.13 -0.47l-0.15 0.16 0 0c-0.01,0 -0.02,0 -0.03,0l-0.06 -0.07c0,0 0,0 -0.01,0 0,0 0,0 0,0l-0.02 0.02 0 0c0,0 0,0 0,0 0,0 0,0 0,0l0.08 0.08 0 0c0.01,0.01 0.03,0.01 0.05,0l0.17 -0.17 0 0c0,0 0,0 0,0 0,0 0,0 0,0l-0.02 -0.02c0,0 0,0 0,0 0,0 0,0 -0.01,0l0 0zm-0.17 0.12l0.15 -0.15c0.01,-0.01 0.02,-0.01 0.03,-0.01 0.01,0 0.01,0 0.02,0.01l0.02 0.02c0,0 0,0 0,0 0.02,0.02 0.02,0.04 0,0.06l-0.17 0.17 0 0c-0.01,0.01 -0.03,0.02 -0.05,0.02 -0.01,0 -0.03,-0.01 -0.05,-0.02l-0.07 -0.08c0,0 0,0 0,0l0 0c-0.02,-0.02 -0.02,-0.04 0,-0.05l0.02 -0.02c0.01,-0.01 0.02,-0.01 0.02,-0.01 0.01,0 0.02,0 0.03,0.01l0.05 0.05 0 0zm0.14 0.83c0,-0.04 0,-0.07 -0.01,-0.11 -0.01,-0.03 -0.01,-0.06 -0.02,-0.09 0,-0.1 0.06,-0.16 0.12,-0.21 0.06,-0.05 0.11,-0.1 0.14,-0.18 0.01,-0.02 0.01,-0.03 0.02,-0.03l0 0c0.01,0 0.01,0 0.02,0.01 0,0 0.01,0.01 0.01,0.02 0.02,0.03 0.03,0.06 0.01,0.1 -0.02,0.02 -0.03,0.04 -0.04,0.06 -0.03,0.04 -0.04,0.05 -0.04,0.07l0 0c-0.01,0.01 -0.01,0.02 0,0.03 0.01,0.01 0.01,0.01 0.02,0.02 0.01,0 0.01,0 0.02,0 0.02,0 0.04,-0.01 0.05,-0.03l0 0c0,0 0.01,-0.01 0.01,-0.02 0.05,-0.06 0.07,-0.09 0.08,-0.18l0.01 -0.28c0,-0.03 0.01,-0.05 0.03,-0.06 0.01,0 0.01,-0.01 0.02,-0.01 0,0 0,0 0.01,0 0,0.01 0.01,0.02 0.01,0.03l0.05 0.41c0,0.02 0,0.03 0,0.05 -0.01,0.02 -0.02,0.03 -0.03,0.05l-0.16 0.24c-0.01,0.02 -0.02,0.04 -0.03,0.07 0,0.01 0,0.03 0,0.04l-0.3 0 0 0zm-0.48 0l0 0c0,-0.01 0,-0.03 0,-0.04 -0.01,-0.03 -0.02,-0.05 -0.03,-0.07l-0.16 -0.24c-0.01,-0.02 -0.02,-0.03 -0.03,-0.05 0,-0.02 0,-0.03 0,-0.05l0.05 -0.41c0,-0.01 0.01,-0.02 0.02,-0.03 0,0 0,0 0,0 0.01,0 0.02,0.01 0.02,0.01 0.02,0.01 0.03,0.03 0.03,0.06l0.01 0.28c0.01,0.09 0.03,0.12 0.08,0.18 0,0.01 0.01,0.02 0.01,0.02l0 0c0.01,0.02 0.03,0.03 0.05,0.03 0.01,0 0.01,0 0.02,0 0.01,-0.01 0.01,-0.01 0.02,-0.02 0.01,-0.01 0.01,-0.02 0.01,-0.03 -0.01,-0.02 -0.02,-0.03 -0.05,-0.07 -0.01,-0.02 -0.02,-0.04 -0.04,-0.06 -0.02,-0.04 -0.01,-0.07 0.01,-0.1 0,-0.01 0.01,-0.02 0.01,-0.02 0.01,-0.01 0.01,-0.01 0.02,-0.01 0.01,0 0.01,0.01 0.02,0.03 0.03,0.08 0.09,0.13 0.14,0.18 0.06,0.05 0.12,0.11 0.12,0.21 -0.01,0.03 -0.01,0.06 -0.02,0.09l0 0c-0.01,0.04 -0.01,0.07 -0.01,0.11l-0.3 0 0 0zm0.17 0.08c-0.01,-0.01 -0.02,-0.01 -0.03,0 0,0 -0.01,0.01 0,0.02 0,0.01 0.01,0.01 0.02,0.01 0,0 0.01,-0.01 0.01,-0.02 0,0 0,-0.01 0,-0.01l0 0zm-0.02 0.07l-0.17 0 -0.01 -0.11 0.18 0c-0.03,0 -0.05,0.02 -0.05,0.05 0,0.03 0.02,0.05 0.05,0.06l0 0zm0.01 -0.11l0.17 0 0 0.1 -0.17 0.01 0 0c0.02,-0.01 0.05,-0.03 0.05,-0.06 0,-0.03 -0.03,-0.05 -0.05,-0.05zm0.48 0.04l0 0c-0.01,-0.01 -0.01,-0.01 -0.02,0 -0.01,0 -0.01,0.01 -0.01,0.02 0,0.01 0.01,0.01 0.02,0.01 0.01,0 0.02,-0.01 0.02,-0.02 0,0 -0.01,-0.01 -0.01,-0.01l0 0zm-0.02 0.07l-0.17 -0.01 0 -0.1 0.17 0 0 0c-0.02,0 -0.05,0.02 -0.05,0.05 0,0.03 0.03,0.05 0.05,0.06l0 0zm0.01 -0.11l0.18 0 0 0.11 -0.18 0c0.03,-0.01 0.05,-0.03 0.05,-0.06 0,-0.03 -0.02,-0.05 -0.05,-0.05l0 0zm0.13 -1.24c-0.02,-0.01 -0.04,-0.02 -0.05,-0.01 -0.02,0.01 -0.02,0.03 -0.01,0.05 0,0.02 0.02,0.02 0.04,0.02 0.01,0 0.03,-0.02 0.03,-0.03 0,-0.01 -0.01,-0.02 -0.01,-0.03zm-0.03 -0.05c0.03,0 0.05,0.02 0.07,0.05 0.01,0.02 0,0.05 -0.02,0.07 0.05,0.02 0.07,0.07 0.07,0.12 0,0.01 0,0.01 -0.01,0.01 -0.01,0 -0.02,0 -0.02,-0.01 0,-0.05 -0.04,-0.09 -0.09,-0.09 -0.05,0 -0.09,0.04 -0.09,0.09 0,0.01 -0.01,0.01 -0.02,0.01 -0.01,0 -0.01,0 -0.02,-0.01 0,-0.05 0.03,-0.1 0.08,-0.12 -0.02,-0.02 -0.03,-0.05 -0.02,-0.07 0.01,-0.03 0.04,-0.05 0.07,-0.05l0 0zm0.13 0l0 0c-0.06,-0.06 -0.16,-0.07 -0.23,-0.02 -0.07,0.05 -0.1,0.14 -0.07,0.22 0.04,0.08 0.12,0.12 0.2,0.1 0.09,-0.01 0.15,-0.09 0.15,-0.17 0,-0.05 -0.02,-0.09 -0.05,-0.13l0 0zm-0.2 0.33l0 0.05c0,0.04 -0.01,0.07 -0.02,0.11 -0.01,0.04 -0.03,0.07 -0.06,0.1 -0.05,0.05 -0.12,0.09 -0.19,0.13 -0.07,-0.04 -0.14,-0.08 -0.19,-0.13 -0.03,-0.03 -0.05,-0.06 -0.06,-0.1 -0.01,-0.04 -0.02,-0.07 -0.02,-0.11l0 0 0 -0.21 0.27 -0.1 0.13 0.05c0,0 0,0.01 0,0.01 0,0.09 0.05,0.17 0.14,0.2l0 0zm-0.14 -0.26c0,0.01 0,0.01 0,0.01l-0.12 -0.04c-0.01,0 -0.01,0 -0.02,0l-0.28 0.11c-0.01,0 -0.01,0 -0.01,0.01l0 0.22c0,0 0,0 0,0 0,0.04 0,0.08 0.02,0.12 0.01,0.04 0.03,0.08 0.06,0.11 0.05,0.06 0.14,0.1 0.2,0.14l0.01 0.01 0 0c0.01,0 0.01,0 0.02,0l0.01 -0.01c0.07,-0.04 0.15,-0.08 0.2,-0.14l0 0c0.03,-0.03 0.05,-0.07 0.06,-0.11 0.02,-0.04 0.02,-0.08 0.02,-0.12l0 -0.04c0.01,0 0.01,0 0.01,0l0 0.04c0,0.21 -0.11,0.28 -0.3,0.39l-0.01 0.01 -0.01 -0.01c-0.19,-0.11 -0.3,-0.18 -0.3,-0.39l0 0 0 -0.24 0.31 -0.12 0.13 0.05z"/>
 </g>
</svg>
