<?xml version="1.0" encoding="UTF-8"?>
<!DOCTYPE svg PUBLIC "-//W3C//DTD SVG 1.1//EN" "http://www.w3.org/Graphics/SVG/1.1/DTD/svg11.dtd">
<!-- Creator: CorelDRAW -->
<svg xmlns="http://www.w3.org/2000/svg" xml:space="preserve" width="30px" height="29px" version="1.1" style="shape-rendering:geometricPrecision; text-rendering:geometricPrecision; image-rendering:optimizeQuality; fill-rule:evenodd; clip-rule:evenodd"
viewBox="0 0 0.68 0.66"
 xmlns:xlink="http://www.w3.org/1999/xlink"
 xmlns:xodm="http://www.corel.com/coreldraw/odm/2003">
 <defs>
  <style type="text/css">
   <![CDATA[
    .fil0 {fill:#606062}
   ]]>
  </style>
 </defs>
 <g id="Layer_x0020_1">
  <metadata id="CorelCorpID_0Corel-Layer"/>
  <path class="fil0" d="M0.34 0.63l-0.27 0c-0.02,0 -0.04,-0.01 -0.05,-0.02 -0.01,-0.01 -0.02,-0.03 -0.02,-0.05l0 -0.49c0,-0.02 0.01,-0.04 0.02,-0.05 0.01,-0.01 0.03,-0.02 0.05,-0.02l0.14 0 0 0.15c0,0.01 0.01,0.03 0.02,0.04 0.02,0 0.04,0.01 0.05,0l0.03 -0.02 0.04 0.02c0.01,0.01 0.03,0 0.05,0 0.01,-0.01 0.02,-0.03 0.02,-0.04l0 -0.15 0.14 0c0.02,0 0.04,0.01 0.05,0.02 0.01,0.01 0.02,0.03 0.02,0.05l0 0.15 -0.11 -0.04c-0.03,-0.02 -0.06,-0.02 -0.09,0l-0.12 0.05c-0.05,0.01 -0.08,0.06 -0.08,0.1l0 0.12c0,0.06 0.03,0.12 0.08,0.16l0.03 0.02zm-0.27 -0.09l0.07 0c0.01,0 0.02,-0.01 0.02,-0.03 0,-0.01 -0.01,-0.02 -0.02,-0.02l-0.07 0c-0.01,0 -0.02,0.01 -0.02,0.02 0,0.02 0.01,0.03 0.02,0.03l0 0zm0 -0.1l0.07 0c0.01,0 0.02,-0.01 0.02,-0.02 0,-0.01 -0.01,-0.02 -0.02,-0.02l-0.07 0c-0.01,0 -0.02,0.01 -0.02,0.02 0,0.01 0.01,0.02 0.02,0.02l0 0zm0.19 -0.44l0.11 0 0 0.15 -0.03 -0.02c-0.02,-0.01 -0.03,-0.01 -0.05,0l-0.03 0.02 0 -0.15zm0.37 0.27c0.03,0.01 0.05,0.04 0.05,0.06l0 0.12c0,0.05 -0.03,0.09 -0.07,0.12l-0.09 0.08c-0.02,0.02 -0.06,0.02 -0.09,0l-0.09 -0.08c-0.04,-0.03 -0.06,-0.07 -0.06,-0.12l0 -0.12c0,-0.02 0.02,-0.05 0.04,-0.06l0.13 -0.05c0.02,-0.01 0.04,-0.01 0.05,0l0.13 0.05zm-0.22 0.17l0.04 0.03c0.01,0.01 0.02,0.01 0.03,0l0.1 -0.09c0,-0.01 0,-0.03 0,-0.04 -0.01,0 -0.03,0 -0.04,0l-0.08 0.08 -0.03 -0.02c-0.01,-0.01 -0.02,0 -0.03,0.01 -0.01,0.01 0,0.02 0.01,0.03l0 0z"/>
 </g>
</svg>
