<?xml version="1.0" encoding="UTF-8"?>
<!DOCTYPE svg PUBLIC "-//W3C//DTD SVG 1.1//EN" "http://www.w3.org/Graphics/SVG/1.1/DTD/svg11.dtd">
<!-- Creator: CorelDRAW -->
<svg xmlns="http://www.w3.org/2000/svg" xml:space="preserve" width="30px" height="26px" version="1.1" style="shape-rendering:geometricPrecision; text-rendering:geometricPrecision; image-rendering:optimizeQuality; fill-rule:evenodd; clip-rule:evenodd"
viewBox="0 0 0.68 0.58"
 xmlns:xlink="http://www.w3.org/1999/xlink"
 xmlns:xodm="http://www.corel.com/coreldraw/odm/2003">
 <defs>
  <style type="text/css">
   <![CDATA[
    .fil0 {fill:#606062;fill-rule:nonzero}
   ]]>
  </style>
 </defs>
 <g id="Layer_x0020_1">
  <metadata id="CorelCorpID_0Corel-Layer"/>
  <path class="fil0" d="M0.39 0.47l-0.06 0.04 -0.01 0 0 0c0,0 0,0 -0.01,0l0 0c0,0 0,0 0,0l0 0 -0.29 -0.1c-0.01,0 -0.02,-0.01 -0.02,-0.02l0 -0.29c0,0 0,0 0,0 0,-0.01 0,-0.01 0,-0.01 0,0 0,0 0,0 0,0 0,0 0,0l0 0c0,-0.01 0.01,-0.01 0.01,-0.01l0 0 0 0c0,0 0,-0.01 0.01,-0.01l0 0 0.06 -0.01 0.36 0.1 0 0.06c0,0.01 0.01,0.02 0.02,0.02 0.01,0 0.02,-0.01 0.02,-0.02l0 -0.07c0,0 0,0 0,0 0,-0.02 0,-0.03 -0.01,-0.03l-0.3 -0.08 0.14 -0.04c0,0 0,0 0.01,0 0,0 0,0 0,0l0.27 0.07 0 0c0,0 0,0.01 0,0.01l0 0 0 0c0.01,0 0.01,0 0.01,0l0 0c0,0.01 0,0.01 0,0.01 0,0 0,0 0,0 0,0 0.01,0.01 0.01,0.01l0 0.15c-0.01,0 -0.01,-0.01 -0.02,-0.01l-0.16 0c-0.01,0 -0.02,0.01 -0.03,0.01l-0.08 0.1c0,0.01 0,0.01 0,0.02 0,0.01 0,0.01 0,0.02l0.07 0.08zm0.28 -0.08l-0.14 0.18c-0.01,0.01 -0.01,0.01 -0.02,0.01 -0.01,0 -0.02,0 -0.02,-0.01l-0.15 -0.18c0,0 0,-0.01 0,-0.01 0,-0.01 0,-0.01 0,-0.02l0.08 -0.08c0,-0.01 0.01,-0.01 0.02,-0.01 0,0 0,0 0,0l0.14 0c0,0 0,0 0,0 0.01,0 0.02,0 0.02,0.01l0.07 0.08c0.01,0.01 0.01,0.01 0.01,0.02 0,0 0,0.01 -0.01,0.01l0 0zm-0.07 -0.03l-0.02 -0.03c-0.01,0 -0.02,-0.01 -0.02,-0.01 -0.02,0 -0.03,0.01 -0.03,0.03 0,0 0,0.01 0.01,0.01l0.01 0.02 -0.04 0.04c0,0.01 0,0.01 0,0.02 0,0.01 0.01,0.02 0.02,0.02 0,0 0,0 0,0 0.01,0 0.02,0 0.02,-0.01l0.05 -0.06c0,0 0.01,-0.01 0.01,-0.01 0,-0.01 -0.01,-0.01 -0.01,-0.02l0 0z"/>
 </g>
</svg>
