<?xml version="1.0" encoding="UTF-8"?>
<!DOCTYPE svg PUBLIC "-//W3C//DTD SVG 1.1//EN" "http://www.w3.org/Graphics/SVG/1.1/DTD/svg11.dtd">
<!-- Creator: CorelDRAW -->
<svg xmlns="http://www.w3.org/2000/svg" xml:space="preserve" width="30px" height="31px" version="1.1" style="shape-rendering:geometricPrecision; text-rendering:geometricPrecision; image-rendering:optimizeQuality; fill-rule:evenodd; clip-rule:evenodd"
viewBox="0 0 0.6 0.62"
 xmlns:xlink="http://www.w3.org/1999/xlink"
 xmlns:xodm="http://www.corel.com/coreldraw/odm/2003">
 <defs>
  <style type="text/css">
   <![CDATA[
    .fil0 {fill:#606062;fill-rule:nonzero}
   ]]>
  </style>
 </defs>
 <g id="Layer_x0020_1">
  <metadata id="CorelCorpID_0Corel-Layer"/>
  <g id="_2193905206080">
   <path class="fil0" d="M0.11 0l0 0.08c0,0.01 -0.01,0.02 -0.02,0.02l-0.09 0c0,0 0.01,0 0.01,-0.01l0.09 -0.08c0,0 0,-0.01 0.01,-0.01l0 0z"/>
   <path class="fil0" d="M0.33 0.49l0 -0.06 -0.02 0 0 -0.07 0.02 0c0,-0.01 0.01,-0.02 0.02,-0.02l-0.04 0 0 -0.06 0.08 0 0 0.05c0.01,0 0.04,-0.01 0.06,-0.02 0,-0.01 0.01,-0.01 0.01,-0.01l0 -0.27c0,-0.02 -0.01,-0.03 -0.02,-0.03l-0.31 0 0 0.08c0,0.03 -0.02,0.04 -0.04,0.04l-0.09 0 0 0.48c0,0.01 0.01,0.02 0.03,0.02l0.4 0c-0.04,-0.02 -0.1,-0.07 -0.1,-0.13l0 0zm0.06 -0.23l-0.08 0 0 -0.07 0.06 0c0.01,0 0.02,0.01 0.02,0.02l0 0.05 0 0zm0 -0.14l-0.05 0c-0.01,0 -0.01,0 -0.01,-0.01 0,-0.01 0,-0.01 0.01,-0.01l0.05 0c0,0 0.01,0 0.01,0.01 0,0.01 -0.01,0.01 -0.01,0.01l0 0zm-0.13 -0.07l0.13 0c0,0 0.01,0.01 0.01,0.01 0,0.01 -0.01,0.01 -0.01,0.01l-0.13 0c0,0 -0.01,0 -0.01,-0.01 0,0 0.01,-0.01 0.01,-0.01zm-0.05 0.5c0,0 0,0 0,0 -0.01,0 -0.01,0 -0.01,0l-0.03 -0.02 -0.02 0.02c-0.01,0.01 -0.01,0.01 -0.02,0l-0.02 -0.02 -0.03 0.02c0,0.01 -0.01,0.01 -0.02,0 0,0 0,-0.01 0,-0.01l0.04 -0.04c0,0 0.01,0 0.01,0l0.03 0.03 0.02 -0.03c0.01,0 0.02,0 0.02,0l0.03 0.04c0.01,0 0.01,0.01 0,0.01zm0.08 -0.12l-0.19 0c-0.01,0 -0.02,-0.01 -0.02,-0.02l0 -0.05 0.21 0 0 0.07 0 0zm0 -0.09l-0.21 0 0 -0.06 0.21 0 0 0.06zm0 -0.08l-0.21 0 0 -0.05c0,-0.01 0.01,-0.02 0.02,-0.02l0.19 0 0 0.07 0 0z"/>
   <path class="fil0" d="M0.58 0.35c-0.05,0 -0.08,-0.01 -0.09,-0.03 -0.01,0 -0.02,0 -0.03,0.01 -0.03,0.02 -0.07,0.02 -0.09,0.02 -0.01,0 -0.02,0.01 -0.02,0.02l0 0.12c0,0.06 0.09,0.11 0.12,0.12 0,0.01 0.01,0.01 0.01,0 0.03,-0.01 0.12,-0.06 0.12,-0.12l0 -0.12c0,-0.01 -0.01,-0.02 -0.02,-0.02l0 0zm-0.03 0.08l-0.09 0.09c0,0 0,0.01 0,0.01l0 0c-0.01,0 -0.01,-0.01 -0.01,-0.01l-0.05 -0.04c0,-0.01 0,-0.01 0.01,-0.02 0,0 0.01,0 0.01,0l0.04 0.04 0.08 -0.09c0,0 0.01,0 0.01,0 0.01,0 0.01,0.01 0,0.02l0 0z"/>
  </g>
 </g>
</svg>
