<?xml version="1.0" encoding="UTF-8"?>
<!DOCTYPE svg PUBLIC "-//W3C//DTD SVG 1.1//EN" "http://www.w3.org/Graphics/SVG/1.1/DTD/svg11.dtd">
<!-- Creator: CorelDRAW -->
<svg xmlns="http://www.w3.org/2000/svg" xml:space="preserve" width="200px" height="79px" version="1.1" style="shape-rendering:geometricPrecision; text-rendering:geometricPrecision; image-rendering:optimizeQuality; fill-rule:evenodd; clip-rule:evenodd"
viewBox="0 0 18.02 7.11"
 xmlns:xlink="http://www.w3.org/1999/xlink"
 xmlns:xodm="http://www.corel.com/coreldraw/odm/2003">
 <defs>
  <style type="text/css">
   <![CDATA[
    .fil0 {fill:none}
    .fil1 {fill:#4B4B4D;fill-rule:nonzero}
   ]]>
  </style>
 </defs>
 <g id="Layer_x0020_1">
  <metadata id="CorelCorpID_0Corel-Layer"/>
  <g id="_2504089041520">
   <polygon class="fil0" points="0,0 18.02,0 18.02,7.11 0,7.11 "/>
   <path class="fil1" d="M13.39 4.54c-0.4,0 -0.73,0.33 -0.73,0.73 0,0.4 0.33,0.73 0.73,0.73 0.4,0 0.73,-0.33 0.73,-0.73 0,-0.4 -0.33,-0.73 -0.73,-0.73zm0 1.21c-0.27,0 -0.49,-0.22 -0.49,-0.48 0,-0.27 0.22,-0.49 0.49,-0.49 0.27,0 0.48,0.22 0.48,0.49 0,0.26 -0.21,0.48 -0.48,0.48zm-9.39 -1.21c-0.4,0 -0.73,0.33 -0.73,0.73 0,0.4 0.33,0.73 0.73,0.73 0.4,0 0.73,-0.33 0.73,-0.73 0,-0.4 -0.33,-0.73 -0.73,-0.73zm0 1.21c-0.27,0 -0.49,-0.22 -0.49,-0.48 0,-0.27 0.22,-0.49 0.49,-0.49 0.27,0 0.48,0.22 0.48,0.49 0,0.26 -0.21,0.48 -0.48,0.48zm12.58 -1.73l-0.2 -0.2c0,-0.22 -0.02,-0.93 -0.17,-1.36 -0.14,-0.42 -0.76,-1.15 -0.99,-1.41l0.16 -0.22c0.04,-0.05 0.04,-0.11 0.02,-0.17 -0.03,-0.05 -0.08,-0.09 -0.15,-0.09 -0.25,0 -6.27,-0.16 -7.82,0.33 -1.41,0.45 -2.76,1.56 -3.01,1.78 -0.35,0.03 -2.21,0.26 -2.66,1.27 -0.12,0.09 -0.43,0.36 -0.35,0.78 0.09,0.45 0.18,0.81 0.41,0.92 0.17,0.09 0.8,0.16 1.01,0.18 0.21,0.43 0.66,0.73 1.17,0.73 0.48,0 0.89,-0.26 1.12,-0.65l7.14 0 0 -0.02c0.22,0.4 0.64,0.67 1.13,0.67 0.61,0 1.12,-0.42 1.26,-0.99 0.31,-0.02 1.17,-0.08 1.45,-0.15 0.39,-0.09 0.5,-0.92 0.53,-1.27 0,-0.05 -0.02,-0.1 -0.05,-0.13zm-0.6 -1.17c0.08,0.46 0.08,1.03 0.08,1.04l-0.09 0 -0.11 -0.7c-0.02,-0.13 0.02,-0.25 0.12,-0.34zm-13.56 0.8l0.34 0c-0.15,0.09 -0.33,0.21 -0.42,0.25 -0.06,0.03 -0.15,0.05 -0.22,0.06 0.08,-0.12 0.18,-0.22 0.3,-0.31zm1.58 2.59c-0.54,0 -0.97,-0.44 -0.97,-0.97 0,-0.54 0.43,-0.97 0.97,-0.97 0.53,0 0.97,0.43 0.97,0.97 0,0.53 -0.44,0.97 -0.97,0.97zm9.39 0c-0.54,0 -0.97,-0.44 -0.97,-0.97 0,-0.54 0.43,-0.97 0.97,-0.97 0.53,0 0.97,0.43 0.97,0.97 0,0.53 -0.44,0.97 -0.97,0.97zm2.63 -1.13c-0.22,0.05 -0.93,0.11 -1.34,0.13 -0.01,-0.7 -0.58,-1.27 -1.29,-1.27 -0.72,0 -1.3,0.58 -1.3,1.3 0,0.11 0.02,0.22 0.05,0.32l-6.89 0c0.03,-0.1 0.04,-0.21 0.04,-0.32 0,-0.72 -0.58,-1.3 -1.29,-1.3 -0.72,0 -1.3,0.58 -1.3,1.3 0,0.07 0.01,0.15 0.02,0.22 -0.33,-0.03 -0.68,-0.09 -0.75,-0.12 -0.11,-0.06 -0.21,-0.53 -0.24,-0.7 -0.06,-0.29 0.24,-0.47 0.25,-0.48 0.02,-0.01 0.04,-0.03 0.05,-0.06 0.09,0 0.26,-0.02 0.39,-0.09 0.16,-0.08 0.63,-0.39 0.65,-0.41 0.03,-0.02 0.05,-0.05 0.03,-0.09 -0.01,-0.03 -0.04,-0.05 -0.07,-0.05l-0.36 0c0.74,-0.4 1.81,-0.49 1.83,-0.49 0.03,0 0.06,-0.02 0.09,-0.04 0.02,-0.01 1.47,-1.28 2.94,-1.75 1.3,-0.41 6.12,-0.35 7.4,-0.32l-0.05 0.07c-0.05,0.06 -0.04,0.15 0.01,0.21 0.24,0.26 0.89,1.02 1.02,1.4 0.01,0.03 0.02,0.06 0.03,0.1l-0.02 0.01c-0.17,0.13 -0.25,0.33 -0.22,0.54l0.12 0.76c0,0.04 0.04,0.07 0.08,0.07l0.24 0 0 -0.01 0.16 0.15c-0.05,0.49 -0.19,0.9 -0.28,0.92zm-1.84 -4.05c-0.31,-0.06 -5.47,0.06 -6.28,0.24 -1.07,0.25 -2.65,1.43 -2.72,1.48 -0.04,0.03 -0.06,0.08 -0.05,0.13 0.02,0.04 0.05,0.08 0.1,0.09 0.01,0 0.11,0.02 0.27,0.04 -0.41,0.97 0.1,2.31 0.12,2.36 0.01,0.02 0.02,0.03 0.04,0.03l6.12 0c0.01,0 0.02,-0.01 0.03,-0.02 0,0 0.01,-0.02 0.01,-0.03 -0.01,-0.04 -0.01,-0.07 -0.01,-0.11 0,-0.74 0.51,-1.38 1.23,-1.54 0.02,-0.01 0.03,-0.02 0.03,-0.04 -0.03,-0.31 -0.1,-0.68 -0.14,-0.87 0.86,-0.03 1.47,-0.06 1.56,-0.06 0.02,0 0.05,-0.01 0.07,-0.03l0.49 -0.41c0.04,-0.03 0.05,-0.09 0.03,-0.14 -0.04,-0.1 -0.44,-1.03 -0.9,-1.12zm-5 1.67l0.08 -1.31c0.05,-0.01 0.11,-0.01 0.16,-0.01l0 1.31c-0.08,0.01 -0.16,0.01 -0.24,0.01zm0.4 -1.33c0.78,-0.04 1.71,-0.07 2.53,-0.09l0.21 1.29c-0.83,0.04 -1.81,0.08 -2.74,0.12l0 -1.32 0 0zm2.91 1.2l-0.22 -1.3c0.06,0 0.11,0 0.16,0l0.29 1.29c-0.08,0 -0.15,0 -0.23,0.01zm-4.54 -1.06c0.18,-0.04 0.6,-0.08 1.15,-0.11l-0.08 1.31c-1.41,0.05 -2.59,0.1 -2.8,0.1 -0.01,0 -0.03,0 -0.05,0l-0.06 -0.4c0.55,-0.35 1.28,-0.77 1.84,-0.9zm-1.99 1l0.05 0.29c-0.17,0 -0.32,-0.01 -0.44,-0.03 0.1,-0.07 0.24,-0.16 0.39,-0.26zm-0.38 0.51c0.17,0.02 0.39,0.03 0.64,0.03 0.22,0 1.39,-0.04 2.79,-0.1 -0.03,0.33 -0.1,1.38 -0.02,2.37l-3.3 0c-0.07,-0.2 -0.49,-1.43 -0.11,-2.3zm7.41 0.61c-0.75,0.18 -1.26,0.84 -1.26,1.61 0,0.02 0,0.05 0,0.08l-2.66 0c-0.08,-1 -0.01,-2.05 0.02,-2.37 1.26,-0.05 2.68,-0.11 3.76,-0.15 0.03,0.17 0.1,0.52 0.14,0.83zm1.45 -1.14c-0.16,0 -0.76,0.03 -1.56,0.06l-0.28 -1.28c0.82,-0.02 1.44,-0.02 1.53,0 0.23,0.04 0.53,0.54 0.69,0.9l-0.38 0.32z"/>
  </g>
 </g>
</svg>
