<?xml version="1.0" encoding="UTF-8"?>
<!DOCTYPE svg PUBLIC "-//W3C//DTD SVG 1.1//EN" "http://www.w3.org/Graphics/SVG/1.1/DTD/svg11.dtd">
<!-- Creator: CorelDRAW -->
<svg xmlns="http://www.w3.org/2000/svg" xml:space="preserve" width="200px" height="79px" version="1.1" style="shape-rendering:geometricPrecision; text-rendering:geometricPrecision; image-rendering:optimizeQuality; fill-rule:evenodd; clip-rule:evenodd"
viewBox="0 0 18.02 7.11"
 xmlns:xlink="http://www.w3.org/1999/xlink"
 xmlns:xodm="http://www.corel.com/coreldraw/odm/2003">
 <defs>
  <style type="text/css">
   <![CDATA[
    .fil0 {fill:none}
    .fil1 {fill:#4B4B4D;fill-rule:nonzero}
   ]]>
  </style>
 </defs>
 <g id="Layer_x0020_1">
  <metadata id="CorelCorpID_0Corel-Layer"/>
  <g id="_2504075842544">
   <polygon class="fil0" points="0,0 18.02,0 18.02,7.11 0,7.11 "/>
   <g>
    <path class="fil1" d="M13.89 4.5c0.06,-0.02 0.12,-0.02 0.18,-0.02 0.46,0 0.82,0.36 0.82,0.81 0,0.45 -0.36,0.82 -0.82,0.82 -0.38,0 -0.71,-0.26 -0.79,-0.63 -0.02,-0.06 -0.03,-0.12 -0.03,-0.18 0,-0.38 0.27,-0.71 0.64,-0.8l0 0zm-0.36 0.92c0.06,0.25 0.28,0.43 0.54,0.43 0.31,0 0.56,-0.25 0.56,-0.56 0,-0.3 -0.25,-0.55 -0.55,-0.55 -0.31,0 -0.56,0.25 -0.56,0.56 0,0.04 0,0.08 0.01,0.12l0 0z"/>
    <path class="fil1" d="M3.3 4.6c0.24,0.15 0.39,0.41 0.39,0.69 0,0.45 -0.37,0.82 -0.82,0.82 -0.16,0 -0.31,-0.04 -0.44,-0.12 -0.21,-0.16 -0.34,-0.41 -0.34,-0.67 0,-0.45 0.37,-0.82 0.82,-0.82 0.14,0 0.27,0.04 0.39,0.1zm-0.73 1.16c0.09,0.05 0.19,0.08 0.29,0.08 0.31,0 0.56,-0.25 0.56,-0.55 0,-0.31 -0.25,-0.56 -0.56,-0.56 -0.19,0 -0.36,0.1 -0.47,0.26 -0.06,0.09 -0.09,0.19 -0.09,0.3 0,0.19 0.1,0.37 0.27,0.47l0 0z"/>
    <path class="fil1" d="M13.94 4.98c0,-0.07 0.06,-0.13 0.13,-0.13 0.08,0 0.14,0.06 0.14,0.13 0,0.08 -0.06,0.14 -0.14,0.14 -0.07,0 -0.13,-0.06 -0.13,-0.14l0 0z"/>
    <path class="fil1" d="M14.24 5.24c0,-0.01 -0.01,-0.03 -0.01,-0.05 0,-0.07 0.06,-0.13 0.14,-0.13 0.05,0 0.11,0.04 0.12,0.09 0.01,0.02 0.01,0.04 0.01,0.06 0,0.07 -0.06,0.13 -0.13,0.13 -0.06,0 -0.11,-0.04 -0.13,-0.1l0 0z"/>
    <path class="fil1" d="M14.18 5.44c0.02,-0.02 0.05,-0.03 0.08,-0.03 0.07,0 0.13,0.06 0.13,0.14 0,0.04 -0.02,0.08 -0.05,0.1 -0.02,0.02 -0.05,0.03 -0.08,0.03 -0.07,0 -0.13,-0.06 -0.13,-0.13 0,-0.04 0.02,-0.08 0.05,-0.11l0 0z"/>
    <path class="fil1" d="M13.97 5.44c0.03,0.02 0.06,0.06 0.06,0.11 0,0.07 -0.06,0.13 -0.14,0.13 -0.02,0 -0.05,-0.01 -0.07,-0.03 -0.04,-0.02 -0.06,-0.06 -0.06,-0.11 0,-0.07 0.05,-0.13 0.13,-0.13 0.03,0 0.05,0.01 0.08,0.03l0 0z"/>
    <path class="fil1" d="M13.9 5.24c-0.02,0.05 -0.07,0.09 -0.12,0.09 -0.08,0 -0.14,-0.06 -0.14,-0.13 0,-0.02 0.01,-0.03 0.01,-0.05 0.02,-0.05 0.07,-0.08 0.13,-0.08 0.07,0 0.13,0.06 0.13,0.13 0,0.01 0,0.03 -0.01,0.04l0 0z"/>
    <path class="fil1" d="M2.73 4.98c0.01,-0.06 0.07,-0.12 0.13,-0.12 0.07,0 0.13,0.06 0.14,0.12 -0.01,0.07 -0.07,0.12 -0.14,0.12 -0.06,0 -0.12,-0.05 -0.13,-0.12z"/>
    <path class="fil1" d="M3.04 5.24c-0.01,-0.01 -0.01,-0.03 -0.01,-0.05 0,-0.07 0.06,-0.13 0.13,-0.13 0.06,0 0.11,0.04 0.13,0.09 0,0.02 0.01,0.04 0.01,0.06 0,0.07 -0.06,0.13 -0.13,0.13 -0.06,0 -0.12,-0.04 -0.13,-0.1z"/>
    <path class="fil1" d="M2.97 5.44c0.02,-0.02 0.05,-0.03 0.08,-0.03 0.07,0 0.13,0.06 0.13,0.14 0,0.04 -0.02,0.08 -0.05,0.1 -0.02,0.02 -0.05,0.03 -0.08,0.03 -0.07,0 -0.13,-0.06 -0.13,-0.13 0,-0.04 0.02,-0.08 0.05,-0.11z"/>
    <path class="fil1" d="M2.76 5.44c0.04,0.02 0.08,0.07 0.08,0.12 0,0.07 -0.06,0.13 -0.14,0.13 -0.03,0 -0.06,-0.01 -0.09,-0.04 -0.05,-0.02 -0.08,-0.06 -0.08,-0.12 0,-0.07 0.06,-0.13 0.13,-0.13 0.04,0 0.07,0.02 0.1,0.04l0 0z"/>
    <path class="fil1" d="M2.69 5.23c-0.01,0.07 -0.06,0.11 -0.13,0.11 -0.07,0 -0.13,-0.06 -0.13,-0.13 0,-0.02 0.01,-0.03 0.01,-0.05 0.01,-0.06 0.07,-0.11 0.13,-0.11 0.07,0 0.13,0.06 0.13,0.14 0,0.01 0,0.03 -0.01,0.04z"/>
    <path class="fil1" d="M0.31 3.17c0,0 0,0 0,0 0.07,0 0.13,0.06 0.13,0.13 0,0.31 0.02,0.72 0.04,1.08l0.07 0c0,-0.27 0.02,-0.91 0.03,-1.08 -0.05,-0.66 2.05,-0.79 2.97,-0.91 0.39,-0.03 0.78,-0.08 1.16,-0.16 0.66,-0.47 1.87,-1.41 2.55,-1.61 0.76,-0.21 3.44,-0.13 3.73,-0.08 0.43,0.06 0.7,1.4 0.71,1.66l5.4 0c0.2,0 0.33,0.15 0.33,0.39l0 1.67c0.23,0 0.42,0.18 0.42,0.41 0,0.02 0,0.04 -0.01,0.05 0,0.32 -0.21,0.7 -0.5,0.7l-1.93 0c-0.07,0.68 -0.65,1.2 -1.34,1.2 -0.7,0 -1.29,-0.54 -1.34,-1.24l-1.67 0 0 0.04c0,0.07 -0.06,0.13 -0.13,0.13l-5.7 0c-0.07,0 -0.13,-0.06 -0.13,-0.13l0 -0.04 -0.89 0c-0.05,0.7 -0.64,1.24 -1.34,1.24 -0.7,0 -1.27,-0.52 -1.34,-1.2l-1.14 0c-0.13,0 -0.14,-0.12 -0.14,-0.21 0,-0.06 0,-0.14 -0.01,-0.23 0,-0.16 -0.02,-0.39 -0.03,-0.69 -0.02,-0.49 -0.03,-0.99 -0.03,-0.99 0,-0.07 0.06,-0.12 0.13,-0.13l0 0zm0.53 0.14c0,0.1 -0.01,0.2 -0.01,0.29l0.36 0c0.03,-0.14 0.04,-0.27 0.05,-0.41 0,-0.05 -0.03,-0.1 -0.07,-0.13 -0.27,0.11 -0.32,0.2 -0.33,0.25l0 0zm1.66 -0.52c-0.35,0.04 -0.71,0.1 -1.06,0.19 0.04,0.06 0.06,0.14 0.06,0.21 0,0.01 0,0.01 0,0.01 -0.01,0.18 -0.03,0.37 -0.07,0.55 -0.01,0.06 -0.07,0.11 -0.13,0.11 0,0 0,0 0,0l-0.48 0c-0.01,0.15 -0.02,0.3 -0.02,0.45 0,0.28 0.02,0.57 0.06,0.85l0.19 0c0.1,-1.87 2.39,-2.57 3.37,-0.9l0.35 0c-0.04,-0.58 -0.12,-1.15 -0.13,-1.74 -0.45,0.07 -1.48,0.18 -2.14,0.27zm-0.77 1.8c0.24,-0.39 0.67,-0.62 1.14,-0.62 0.67,0 1.24,0.5 1.33,1.16l0.2 0c-0.05,-0.94 -0.91,-1.73 -1.86,-1.51 -0.69,0.15 -1.2,0.84 -1.22,1.55l0.21 0c0.02,-0.21 0.09,-0.41 0.2,-0.58l0 0zm6.61 0.54c0,-0.19 0,-0.4 0,-0.6l-3.3 0c0,0.19 0.02,0.4 0,0.6l3.3 0zm3.1 0l0 -0.61 -2.85 0c0,0.2 0,0.41 0,0.6l2.85 0.01zm1.5 -0.54c0.25,-0.39 0.68,-0.63 1.14,-0.63 0.69,0 1.27,0.53 1.34,1.21l0.2 0c-0.03,-0.95 -0.91,-1.78 -1.87,-1.54 -0.67,0.14 -1.18,0.81 -1.22,1.51l0.21 0c0.02,-0.2 0.09,-0.39 0.19,-0.55l0.01 0zm3.62 0.58c0.08,-0.17 0.12,-0.36 0.12,-0.55 0,-0.03 0,-0.06 0,-0.09l-0.92 0c0.08,0.21 0.12,0.42 0.13,0.64l0.67 0zm-4.16 -0.65l-0.71 0 0 0.6 0.59 0c0.01,-0.2 0.05,-0.4 0.12,-0.6l0 0zm-7.62 0l-0.24 0c0.07,0.2 0.12,0.4 0.13,0.6l0.12 0c0,-0.2 0,-0.4 -0.01,-0.6zm6.65 -2.31c0.01,-0.21 -0.29,-1.32 -0.48,-1.41 -0.3,-0.05 -2.94,-0.11 -3.62,0.08 -0.64,0.19 -1.81,1.1 -2.42,1.54 0,0.61 0.09,1.23 0.13,1.85l3.29 0c-0.01,-0.72 -0.03,-1.45 -0.07,-1.71l-0.97 0c-0.12,0.03 -0.22,0.08 -0.31,0.15 -0.07,0.07 -0.16,0.11 -0.25,0.13l-0.57 0c-0.02,0.02 -0.05,0.03 -0.08,0.04 -0.07,0.01 -0.14,0.01 -0.21,0.01 -0.38,0 -0.58,-0.16 -0.6,-0.35 -0.02,-0.19 0.2,-0.47 0.71,-0.56 1.09,-0.75 1.38,-0.86 1.83,-0.94 0.42,-0.07 1.96,-0.04 2.68,-0.03 0.45,0.01 0.52,0.96 0.42,1.33 -0.06,0.19 -0.17,0.22 -0.23,0.22l-2.16 0c0.04,0.3 0.06,0.88 0.08,1.71l2.83 0 0 -2.06zm-5.49 0.4l0 0c0.03,-0.06 0.04,-0.14 0.04,-0.21 0,-0.05 0,-0.11 -0.02,-0.16 -0.31,0.07 -0.46,0.19 -0.45,0.25 0.01,0.06 0.16,0.15 0.43,0.13l0 -0.01zm0.29 -0.05l0.47 0c0.17,-0.1 0.35,-0.27 0.59,-0.27l0.93 0 0 -1.03c-0.73,0.05 -0.87,0.11 -2.01,0.87 0.03,0.08 0.04,0.17 0.04,0.26 0,0.06 0,0.12 -0.02,0.18l0 -0.01zm2.25 -0.26l2.15 0c0.09,-0.2 0.05,-0.91 -0.15,-1.04 -0.57,0 -1.32,-0.02 -2,0l0 1.04zm8.62 0.16l-5.41 0 0 1.8 0.83 0c0.3,-0.57 0.9,-0.94 1.55,-0.94 0.65,0 1.25,0.37 1.55,0.94l1.55 0 0 -0.27 -0.17 0c-0.22,0 -0.41,-0.18 -0.41,-0.41l0 -0.43c0.01,-0.29 0.25,-0.53 0.54,-0.53 0.02,0 0.03,0 0.05,0 -0.01,-0.06 -0.01,-0.16 -0.08,-0.16zm0.07 0.43c-0.02,-0.01 -0.03,-0.01 -0.04,-0.01 -0.15,0 -0.27,0.12 -0.27,0.27l0 0.43c0,0.08 0.06,0.15 0.14,0.15l0.17 0 0 -0.84zm0.41 1.84c0,-0.12 -0.02,-0.19 -0.18,-0.2l-0.46 0c0,0.03 0,0.06 0,0.09 0,0.18 -0.03,0.37 -0.1,0.54l0.51 0c0.09,0 0.23,-0.23 0.23,-0.43zm-4.56 0.81c0.12,0.48 0.55,0.83 1.05,0.83 0.6,0 1.08,-0.48 1.08,-1.08 0,-0.59 -0.48,-1.07 -1.08,-1.07 -0.08,0 -0.16,0.01 -0.24,0.03 -0.49,0.11 -0.84,0.55 -0.84,1.05 0,0.08 0.01,0.16 0.03,0.24l0 0zm-10.73 0.67c0.17,0.1 0.37,0.16 0.57,0.16 0.6,0 1.08,-0.48 1.08,-1.08 0,-0.59 -0.48,-1.07 -1.08,-1.07 -0.37,0 -0.71,0.19 -0.91,0.5 -0.11,0.17 -0.17,0.37 -0.17,0.57 0,0.37 0.2,0.72 0.51,0.92l0 0zm-1.7 -1.05c-0.03,-0.17 -0.04,-0.34 -0.04,-0.52l-0.07 0c0,0.22 0.02,0.41 0.02,0.52l0.09 0z"/>
    <path class="fil1" d="M10.61 3.21l-0.33 0c-0.07,0 -0.13,-0.06 -0.13,-0.13 0,-0.08 0.06,-0.14 0.13,-0.14l0.33 0c0.07,0 0.13,0.06 0.13,0.14 0,0.07 -0.06,0.13 -0.13,0.13l0 0z"/>
    <path class="fil1" d="M7.6 2.94l0.32 0c0.08,0 0.14,0.06 0.14,0.14 0,0.07 -0.06,0.13 -0.14,0.13l-0.32 0c-0.07,0 -0.13,-0.06 -0.13,-0.13 0,-0.08 0.06,-0.14 0.13,-0.14z"/>
   </g>
  </g>
 </g>
</svg>
