<?xml version="1.0" encoding="UTF-8"?>
<!DOCTYPE svg PUBLIC "-//W3C//DTD SVG 1.1//EN" "http://www.w3.org/Graphics/SVG/1.1/DTD/svg11.dtd">
<!-- Creator: CorelDRAW -->
<svg xmlns="http://www.w3.org/2000/svg" xml:space="preserve" width="200px" height="79px" version="1.1" style="shape-rendering:geometricPrecision; text-rendering:geometricPrecision; image-rendering:optimizeQuality; fill-rule:evenodd; clip-rule:evenodd"
viewBox="0 0 18.02 7.11"
 xmlns:xlink="http://www.w3.org/1999/xlink"
 xmlns:xodm="http://www.corel.com/coreldraw/odm/2003">
 <defs>
  <style type="text/css">
   <![CDATA[
    .fil0 {fill:none}
    .fil1 {fill:#4B4B4D;fill-rule:nonzero}
   ]]>
  </style>
 </defs>
 <g id="Layer_x0020_1">
  <metadata id="CorelCorpID_0Corel-Layer"/>
  <g id="_2504080310256">
   <polygon class="fil0" points="0,0 18.02,0 18.02,7.11 0,7.11 "/>
   <path class="fil1" d="M4.08 4.39c-0.44,0 -0.8,0.36 -0.8,0.8 0,0.45 0.36,0.8 0.8,0.8 0.44,0 0.8,-0.35 0.8,-0.8 0,-0.44 -0.36,-0.8 -0.8,-0.8zm0 1.3c-0.27,0 -0.5,-0.22 -0.5,-0.5 0,-0.27 0.23,-0.49 0.5,-0.49 0.27,0 0.5,0.22 0.5,0.49 0,0.28 -0.23,0.5 -0.5,0.5zm10.39 -1.3c-0.44,0 -0.8,0.36 -0.8,0.8 0,0.45 0.36,0.8 0.8,0.8 0.45,0 0.81,-0.35 0.81,-0.8 0,-0.44 -0.36,-0.8 -0.81,-0.8zm0 1.3c-0.27,0 -0.49,-0.22 -0.49,-0.5 0,-0.27 0.22,-0.49 0.49,-0.49 0.28,0 0.5,0.22 0.5,0.49 0,0.28 -0.22,0.5 -0.5,0.5zm3.27 -0.02l-0.23 -0.37 0 -2.19 0.24 -0.57c0.02,-0.05 0.01,-0.1 -0.02,-0.15 -0.03,-0.04 -0.07,-0.06 -0.12,-0.06l-2.08 0 -2.12 -1.5c-0.26,-0.19 -0.58,-0.29 -0.91,-0.28l-4.37 0.17c-0.28,0.01 -0.55,0.11 -0.79,0.27l-2.03 1.42 -2.97 0.39c-1.08,0.13 -1.92,1.02 -2.01,2.1l-0.06 0.84c-0.01,0.04 0.01,0.08 0.04,0.11 0.02,0.03 0.07,0.05 0.11,0.05l2.5 0c0.24,0.39 0.67,0.65 1.16,0.65 0.49,0 0.92,-0.26 1.16,-0.65l8.07 0c0.24,0.39 0.67,0.65 1.16,0.65 0.5,0 0.93,-0.26 1.16,-0.65l1.98 0c0.05,0 0.1,-0.03 0.13,-0.08 0.03,-0.04 0.02,-0.1 0,-0.15zm-13.66 0.58c-0.58,0 -1.06,-0.47 -1.06,-1.06 0,-0.58 0.48,-1.05 1.06,-1.05 0.58,0 1.06,0.47 1.06,1.05 0,0.59 -0.48,1.06 -1.06,1.06zm10.39 0c-0.58,0 -1.05,-0.47 -1.05,-1.06 0,-0.58 0.47,-1.05 1.05,-1.05 0.59,0 1.06,0.47 1.06,1.05 0,0.59 -0.47,1.06 -1.06,1.06zm2.76 -0.83l0.11 0.18 -1.57 0c0.04,-0.13 0.07,-0.27 0.07,-0.41 0,-0.75 -0.62,-1.36 -1.37,-1.36 -0.75,0 -1.36,0.61 -1.36,1.36 0,0.14 0.03,0.28 0.06,0.41l-7.79 0c0.04,-0.13 0.06,-0.27 0.06,-0.41 0,-0.75 -0.61,-1.36 -1.36,-1.36 -0.75,0 -1.36,0.61 -1.36,1.36 0,0.14 0.02,0.28 0.06,0.41l-2.2 0 0.06 -0.67c0.07,-0.95 0.8,-1.72 1.74,-1.83l3.01 -0.39c0.02,-0.01 0.04,-0.02 0.06,-0.03l2.07 -1.44c0.18,-0.13 0.4,-0.21 0.62,-0.21l4.37 -0.17c0.26,-0.01 0.52,0.06 0.73,0.21l2.15 1.53c0.03,0.02 0.06,0.03 0.09,0.03l1.9 0 -0.16 0.39c-0.01,0.02 -0.02,0.04 -0.02,0.06l0 2.26c0,0.03 0.01,0.05 0.03,0.08zm-2.64 -2.92c0,0 0.01,-0.01 0.01,-0.02 0,0 -0.01,0 -0.01,-0.01 0,-0.01 0,-0.02 0,-0.03 -0.01,-0.01 -0.01,-0.01 -0.01,-0.02 -0.01,-0.01 -0.01,-0.02 -0.02,-0.03 -0.01,0 -0.01,-0.01 -0.02,-0.02 0,0 0,-0.01 -0.01,-0.01l-1.47 -1.04c-0.15,-0.11 -0.32,-0.16 -0.5,-0.16l-4.4 0.17c-0.17,0 -0.33,0.06 -0.47,0.15l-1.34 0.94c0,0.01 -0.01,0.01 -0.01,0.01 -0.01,0.01 -0.01,0.02 -0.02,0.03 -0.01,0 -0.01,0.01 -0.02,0.02 0,0.01 0,0.02 -0.01,0.03 0,0.01 0,0.02 0,0.03 0,0 -0.01,0 -0.01,0.01 0,0 0.01,0.01 0.01,0.01 0,0.01 0,0.02 0,0.03 0.01,0.01 0.01,0.02 0.02,0.03 0,0.01 0,0.01 0,0.01 0,0.01 0.01,0.01 0.01,0.01 0.01,0.01 0.02,0.03 0.04,0.03 0,0.01 0.01,0.01 0.01,0.01 0.02,0.01 0.04,0.02 0.07,0.02 0,0 0,0 0,0l8.01 -0.06c0,0 0,-0.01 0.01,-0.01 0.01,0 0.02,0 0.03,0 0.01,0 0.02,-0.01 0.02,-0.01 0.01,-0.01 0.02,-0.01 0.03,-0.02 0,0 0.01,-0.01 0.02,-0.02 0,0 0.01,0 0.01,-0.01 0,0 0,-0.01 0,-0.01 0.01,-0.01 0.01,-0.02 0.02,-0.03 0,-0.01 0,-0.02 0,-0.03zm-2.03 -1.04c0.12,0 0.23,0.04 0.33,0.11l1.08 0.77 -3.59 0.03 0.18 -0.83 1.97 -0.08 0.03 0zm-4.69 0.27c0.09,-0.06 0.19,-0.1 0.3,-0.1l2.08 -0.08 -0.18 0.82 -3.15 0.02 0.95 -0.66zm1.71 1.62c0,0.09 -0.06,0.16 -0.15,0.16l-0.52 0c-0.08,0 -0.15,-0.07 -0.15,-0.16 0,-0.08 0.07,-0.15 0.15,-0.15l0.52 0c0.09,0 0.15,0.07 0.15,0.15zm3.63 0c0,0.09 -0.06,0.16 -0.15,0.16l-0.52 0c-0.08,0 -0.15,-0.07 -0.15,-0.16 0,-0.08 0.07,-0.15 0.15,-0.15l0.52 0c0.09,0 0.15,0.07 0.15,0.15z"/>
  </g>
 </g>
</svg>
