<?xml version="1.0" encoding="UTF-8"?>
<!DOCTYPE svg PUBLIC "-//W3C//DTD SVG 1.1//EN" "http://www.w3.org/Graphics/SVG/1.1/DTD/svg11.dtd">
<!-- Creator: CorelDRAW -->
<svg xmlns="http://www.w3.org/2000/svg" xml:space="preserve" width="200px" height="79px" version="1.1" style="shape-rendering:geometricPrecision; text-rendering:geometricPrecision; image-rendering:optimizeQuality; fill-rule:evenodd; clip-rule:evenodd"
viewBox="0 0 18.02 7.11"
 xmlns:xlink="http://www.w3.org/1999/xlink"
 xmlns:xodm="http://www.corel.com/coreldraw/odm/2003">
 <defs>
  <style type="text/css">
   <![CDATA[
    .str1 {stroke:#4B4B4D;stroke-width:0.17;stroke-miterlimit:22.9256}
    .str0 {stroke:#4B4B4D;stroke-width:0.25;stroke-miterlimit:22.9256}
    .fil0 {fill:none}
    .fil1 {fill:#FEFEFE;fill-rule:nonzero}
   ]]>
  </style>
 </defs>
 <g id="Layer_x0020_1">
  <metadata id="CorelCorpID_0Corel-Layer"/>
  <g id="_2504077134336">
   <polygon class="fil0" points="0,0 18.02,0 18.02,7.11 0,7.11 "/>
   <g>
    <path class="fil1 str0" d="M1.12 3.28c0,0 0.45,-0.56 1.09,-0.61 0,0 2.53,-0.15 3.62,-0.41l2.42 -1.39c0,0 0.83,-0.39 2.72,-0.2 0,0 2.5,0.16 6.19,2.09 0,0 0.67,0.48 0.67,0.85l0 1.22c0,0 -0.02,0.15 -0.26,0.26l-1.99 0.47c0,0 0.21,-2.23 -1.75,-2.23 0,0 -1.15,-0.02 -1.53,1.41l0 0.82c0,0 0.03,0.24 -0.24,0.24l-6.33 0c0,0 -0.22,0.01 -0.22,-0.26 0,0 0.16,-2.21 -1.66,-2.21 0,0 -1.64,-0.03 -1.64,2.04 0,0 0.01,0.19 -0.15,0.19 0,0 -1.38,-0.09 -1.86,-0.47l0 -1.31c0,0 0.3,-0.5 0.92,-0.5zm16.47 0.47c0,-0.38 -0.75,-0.87 -0.75,-0.87 -0.41,-0.16 -0.99,0 -0.99,0 0.14,0.85 1.74,0.87 1.74,0.87zm-4.31 -1.43c0.99,0 0.85,-0.19 0.85,-0.19 0.06,-0.19 -1.05,-0.53 -1.81,-0.74l0 0.93 0.96 0 0 0zm-2.47 1.07l0.43 0c0.09,0 0.15,-0.04 0.15,-0.09 0,-0.05 -0.06,-0.09 -0.15,-0.09l-0.43 0c-0.08,0 -0.15,0.04 -0.15,0.09 0,0.05 0.07,0.09 0.15,0.09zm1.25 -1.07l0 -1c-0.26,-0.07 -0.44,-0.12 -0.44,-0.12 -2.13,-0.52 -3.27,0.08 -3.27,0.08l-1.72 1.04 5.43 0zm-9.75 0.57c-0.42,-0.06 -1.03,0.51 -1.03,0.51 0.94,0.14 1.03,-0.51 1.03,-0.51z"/>
    <path class="fil1 str1" d="M13.9 3.58c0.78,0 1.42,0.65 1.42,1.45 0,0.81 -0.64,1.46 -1.42,1.46 -0.78,0 -1.42,-0.65 -1.42,-1.46 0,-0.8 0.64,-1.45 1.42,-1.45zm0 1.68c0.12,0 0.22,-0.1 0.22,-0.23 0,-0.13 -0.1,-0.23 -0.22,-0.23 -0.13,0 -0.23,0.1 -0.23,0.23 0,0.13 0.1,0.23 0.23,0.23zm-0.21 -0.61c0.03,-0.02 0.06,-0.03 0.1,-0.04l0 -0.33c-0.12,0.02 -0.23,0.07 -0.33,0.14l0.23 0.23zm0.32 -0.04c0.04,0.01 0.08,0.02 0.11,0.04l0.22 -0.23c-0.09,-0.07 -0.21,-0.12 -0.33,-0.14l0 0.33zm0.27 0.21c0.01,0.03 0.03,0.06 0.03,0.1l0.32 0c-0.02,-0.12 -0.07,-0.24 -0.13,-0.33l-0.22 0.23zm0.03 0.33c0,0.04 -0.02,0.07 -0.04,0.1l0.22 0.23c0.07,-0.1 0.12,-0.21 0.14,-0.33l-0.32 0zm-0.2 0.27c-0.03,0.02 -0.06,0.03 -0.1,0.04l0 0.32c0.12,-0.02 0.23,-0.06 0.33,-0.14l-0.23 -0.22zm-0.32 0.04c-0.04,-0.01 -0.07,-0.02 -0.1,-0.04l-0.22 0.23c0.09,0.07 0.2,0.11 0.32,0.13l0 -0.32zm-0.26 -0.2c-0.02,-0.04 -0.04,-0.07 -0.05,-0.11l-0.31 0c0.02,0.12 0.07,0.24 0.14,0.33l0.22 -0.22zm-0.05 -0.34c0.01,-0.04 0.03,-0.08 0.05,-0.11l-0.23 -0.23c-0.06,0.1 -0.11,0.21 -0.13,0.34l0.31 0z"/>
    <path class="fil1 str1" d="M3.85 3.58c0.79,0 1.42,0.65 1.42,1.45 0,0.81 -0.63,1.46 -1.42,1.46 -0.78,0 -1.41,-0.65 -1.41,-1.46 0,-0.8 0.63,-1.45 1.41,-1.45zm0 1.68c0.13,0 0.23,-0.1 0.23,-0.23 0,-0.13 -0.1,-0.23 -0.23,-0.23 -0.12,0 -0.22,0.1 -0.22,0.23 0,0.13 0.1,0.23 0.22,0.23zm-0.21 -0.61c0.03,-0.02 0.06,-0.03 0.1,-0.04l0 -0.33c-0.12,0.02 -0.23,0.07 -0.32,0.14l0.22 0.23zm0.33 -0.04c0.03,0.01 0.07,0.02 0.1,0.04l0.22 -0.23c-0.09,-0.07 -0.2,-0.12 -0.32,-0.14l0 0.33zm0.26 0.21c0.02,0.03 0.03,0.06 0.04,0.1l0.31 0c-0.02,-0.12 -0.06,-0.24 -0.13,-0.33l-0.22 0.23zm0.04 0.33c-0.01,0.04 -0.02,0.07 -0.04,0.1l0.22 0.23c0.07,-0.1 0.11,-0.21 0.13,-0.33l-0.31 0zm-0.2 0.27c-0.03,0.02 -0.07,0.03 -0.1,0.04l0 0.32c0.12,-0.02 0.23,-0.06 0.32,-0.14l-0.22 -0.22zm-0.33 0.04c-0.03,-0.01 -0.06,-0.02 -0.1,-0.04l-0.22 0.23c0.09,0.07 0.2,0.11 0.32,0.13l0 -0.32zm-0.26 -0.2c-0.02,-0.04 -0.03,-0.07 -0.04,-0.11l-0.31 0c0.01,0.12 0.06,0.24 0.13,0.33l0.22 -0.22zm-0.04 -0.34c0.01,-0.04 0.02,-0.08 0.04,-0.11l-0.22 -0.23c-0.07,0.1 -0.12,0.21 -0.13,0.34l0.31 0z"/>
   </g>
  </g>
 </g>
</svg>
